<svg width="45" height="39" viewBox="0 0 45 39" fill="none" xmlns="http://www.w3.org/2000/svg">
<path d="M16.7821 33.0764C11.5744 32.0554 7.5082 28.6568 6.28664 24.3042C5.40445 21.1608 5.40445 17.8894 6.28664 14.746C7.5082 10.3934 11.5744 6.99489 16.7821 5.9739C20.543 5.23656 24.457 5.23656 28.2179 5.9739C33.4256 6.99489 37.4918 10.3934 38.7134 14.746C39.5955 17.8894 39.5955 21.1608 38.7134 24.3042C37.4918 28.6568 33.4256 32.0554 28.2179 33.0764C24.457 33.8137 20.543 33.8137 16.7821 33.0764Z" stroke="#C4C6CC" stroke-width="2.8125"/>
<ellipse cx="22.5" cy="25.0101" rx="1.875" ry="1.56714" fill="#760135"/>
<path d="M18.75 16.3909V16.223C18.75 14.152 20.4289 12.473 22.5 12.473V12.473H23.0463C24.8156 12.473 26.25 13.9074 26.25 15.6767V15.6767C26.25 16.6259 25.8291 17.5262 25.1008 18.1349L22.5 20.3087" stroke="#760135" stroke-width="2.8125" stroke-linecap="round" stroke-linejoin="round"/>
</svg>
